<?xml version="1.0" standalone="no"?>
<!DOCTYPE svg PUBLIC "-//W3C//DTD SVG 20010904//EN"
 "http://www.w3.org/TR/2001/REC-SVG-20010904/DTD/svg10.dtd">
<svg version="1.0" xmlns="http://www.w3.org/2000/svg"
 width="300.000000pt" height="150.000000pt" viewBox="0 0 300.000000 150.000000"
 preserveAspectRatio="xMidYMid meet">
<metadata>
Created by potrace 1.10, written by Peter Selinger 2001-2011
</metadata>
<g transform="translate(0.000000,150.000000) scale(0.100000,-0.100000)"
fill="#fdfdfe" stroke="none">
<path d="M1200 919 c0 -4 9 -9 20 -12 19 -5 20 -14 20 -156 0 -148 -1 -152
-22 -161 -17 -6 -7 -9 42 -9 47 0 59 3 43 9 -19 8 -22 18 -25 89 l-3 81 104 0
c90 0 102 -2 97 -16 -3 -9 -6 -46 -6 -84 0 -57 -3 -69 -17 -73 -10 -3 25 -5
77 -6 52 0 89 3 83 7 -10 6 -10 15 -1 40 11 28 17 33 43 30 25 -3 31 -9 39
-40 8 -31 14 -38 33 -38 21 0 22 2 11 14 -8 7 -29 53 -48 100 -18 47 -35 84
-37 82 -3 -2 -19 -44 -37 -93 -30 -80 -36 -88 -61 -91 -16 -2 -32 2 -36 10 -5
7 -9 78 -9 156 0 136 1 144 20 149 38 10 20 18 -40 19 -33 0 -60 -3 -60 -8 0
-4 9 -8 20 -8 17 0 20 -7 20 -49 0 -27 3 -56 6 -65 5 -14 -7 -16 -97 -16
l-104 0 3 65 c3 48 7 65 18 65 8 0 14 4 14 8 0 4 -25 8 -55 8 -30 0 -55 -3
-55 -7z m468 -216 c10 -31 10 -33 -14 -33 -22 0 -24 3 -18 28 13 52 16 52 32
5z"/>
<path d="M1020 910 c0 -6 7 -10 15 -10 8 0 15 2 15 4 0 2 -7 6 -15 10 -8 3
-15 1 -15 -4z"/>
<path d="M1732 908 c-16 -16 -15 -39 3 -52 12 -9 4 -11 -35 -12 -47 0 -62 7
-40 21 7 4 7 13 0 26 -13 22 -26 24 -45 5 -12 -11 -12 -17 1 -34 13 -19 12
-21 -8 -25 -13 -2 57 -5 155 -6 151 -1 177 1 177 14 0 8 -4 15 -10 15 -5 0
-10 -4 -10 -10 0 -6 -33 -10 -80 -10 -47 0 -80 4 -80 10 0 6 6 10 14 10 18 0
15 31 -4 47 -19 16 -23 16 -38 1z"/>
<path d="M1938 904 c-43 -23 -34 -34 26 -34 44 0 55 -4 59 -17 4 -17 5 -17 6
0 1 14 10 17 49 17 36 0 54 5 67 20 17 19 19 19 37 3 10 -9 17 -26 16 -37 -3
-20 3 -21 76 -24 52 -2 94 2 124 13 53 18 100 19 138 5 20 -8 29 -8 34 1 5 7
27 9 66 5 41 -4 52 -3 38 3 -35 15 -240 12 -303 -5 -73 -19 -161 -10 -161 16
0 10 -11 25 -25 34 -33 22 -207 22 -247 0z m193 -8 c-8 -9 -40 -14 -109 -15
-89 -1 -95 0 -72 14 35 20 198 21 181 1z"/>
<path d="M2540 910 c0 -5 5 -10 10 -10 6 0 10 5 10 10 0 6 -4 10 -10 10 -5 0
-10 -4 -10 -10z"/>
<path d="M2490 897 c0 -4 -4 -5 -10 -2 -5 3 -10 2 -10 -3 0 -5 31 -9 69 -9 55
0 66 3 57 13 -7 7 -15 9 -20 3 -13 -12 -46 -12 -46 0 0 6 -9 9 -20 8 -11 -1
-20 -5 -20 -10z"/>
<path d="M360 865 c0 -19 4 -35 8 -35 4 0 8 16 8 35 0 19 -4 35 -8 35 -4 0 -8
-16 -8 -35z"/>
<path d="M410 867 c0 -20 4 -37 9 -37 5 0 7 10 4 23 l-6 22 27 -24 c25 -24 26
-24 26 -4 0 12 3 28 6 37 3 9 1 16 -5 16 -6 0 -11 -10 -11 -22 l0 -21 -25 23
-25 23 0 -36z"/>
<path d="M510 887 c0 -7 6 -19 12 -25 10 -10 10 -15 -2 -22 -13 -8 -13 -10 1
-10 25 0 30 12 14 36 -11 17 -12 24 -2 27 7 3 5 6 -5 6 -10 1 -18 -5 -18 -12z"/>
<path d="M578 893 c6 -2 12 -18 12 -34 0 -16 4 -29 8 -29 5 0 6 14 4 32 -4 26
-2 30 12 25 9 -4 16 -2 16 3 0 6 -15 10 -32 9 -18 0 -27 -3 -20 -6z"/>
<path d="M655 865 c0 -19 3 -35 8 -35 4 0 7 16 7 35 0 19 -3 35 -7 35 -5 0 -8
-16 -8 -35z"/>
<path d="M708 893 c6 -2 12 -18 12 -34 0 -16 5 -29 10 -29 6 0 10 14 10 31 0
17 4 28 10 24 6 -3 10 -1 10 4 0 6 -15 11 -32 10 -18 0 -27 -3 -20 -6z"/>
<path d="M782 868 c2 -28 7 -33 28 -33 21 0 26 5 28 33 2 18 -1 32 -7 32 -6 0
-11 -13 -11 -30 0 -16 -4 -30 -10 -30 -5 0 -10 14 -10 30 0 17 -5 30 -11 30
-6 0 -9 -14 -7 -32z"/>
<path d="M870 865 c0 -19 5 -35 10 -35 6 0 10 16 10 35 0 19 -4 35 -10 35 -5
0 -10 -16 -10 -35z"/>
<path d="M925 880 c-9 -28 26 -72 43 -54 17 18 15 21 -10 20 -17 -1 -23 5 -23
19 0 14 6 20 23 19 12 0 22 3 22 8 0 18 -49 8 -55 -12z"/>
<path d="M1089 884 c-9 -11 -10 -20 -2 -32 15 -24 44 -27 59 -7 28 38 -27 75
-57 39z m46 -20 c0 -10 -8 -20 -17 -22 -18 -3 -26 27 -11 42 12 11 28 0 28
-20z"/>
<path d="M1013 860 c-6 -16 -8 -30 -3 -30 4 0 11 7 14 17 6 14 8 14 21 -3 18
-23 19 -14 3 21 -15 32 -21 32 -35 -5z"/>
<path d="M2150 860 c0 -11 5 -20 10 -20 6 0 10 9 10 20 0 11 -4 20 -10 20 -5
0 -10 -9 -10 -20z"/>
<path d="M1950 850 c0 -5 5 -10 10 -10 6 0 10 5 10 10 0 6 -4 10 -10 10 -5 0
-10 -4 -10 -10z"/>
<path d="M2080 850 c0 -5 5 -10 10 -10 6 0 10 5 10 10 0 6 -4 10 -10 10 -5 0
-10 -4 -10 -10z"/>
<path d="M353 769 c14 -8 17 -24 17 -80 0 -39 -5 -79 -10 -90 -10 -17 -7 -19
22 -18 18 0 27 3 21 6 -20 7 -18 183 1 183 23 0 47 -30 44 -53 -2 -12 -14 -27
-28 -34 -23 -12 -23 -13 -4 -13 26 0 54 30 54 57 0 34 -32 53 -86 53 -38 -1
-45 -3 -31 -11z"/>
<path d="M511 690 c-18 -50 -41 -95 -50 -100 -12 -7 -9 -9 17 -10 20 0 31 4
27 10 -4 6 -4 24 0 40 6 25 11 30 37 30 25 0 32 -6 45 -40 l16 -40 89 0 c86 0
91 1 119 29 38 38 40 97 5 138 -22 25 -30 28 -102 30 -44 1 -71 0 -61 -3 14
-5 17 -18 17 -95 0 -88 -1 -90 -22 -87 -25 3 -45 38 -75 131 -10 31 -20 57
-23 57 -3 0 -21 -41 -39 -90z m287 44 c51 -58 10 -148 -66 -142 l-37 3 -3 88
-3 88 43 -6 c28 -4 51 -15 66 -31z m-250 -62 c-28 -5 -30 0 -16 39 l11 33 12
-34 c11 -32 10 -35 -7 -38z"/>
<path d="M858 773 c8 -3 12 -32 12 -93 0 -61 -4 -90 -12 -93 -7 -3 5 -6 27 -6
32 0 36 2 23 10 -11 6 -18 22 -18 39 0 46 37 40 73 -11 l29 -40 81 3 c73 3 82
5 85 23 4 19 3 19 -10 2 -9 -12 -23 -18 -39 -15 -21 3 -24 9 -27 46 -3 39 -1
42 22 42 14 0 26 -4 26 -10 0 -5 4 -10 8 -10 4 0 8 9 8 19 0 16 -6 18 -34 14
l-33 -6 3 39 c3 35 5 39 28 35 14 -1 28 -8 32 -15 5 -6 8 -2 8 12 0 20 -4 22
-57 21 -32 0 -52 -3 -45 -6 8 -3 12 -32 12 -94 0 -79 -2 -89 -18 -89 -20 0
-35 11 -71 52 -22 25 -22 28 -7 50 36 51 6 88 -70 87 -27 0 -43 -3 -36 -6z
m84 -20 c34 -30 11 -87 -32 -76 -15 4 -20 14 -20 42 0 54 17 66 52 34z"/>
<path d="M1768 771 c10 -6 13 -32 10 -100 l-3 -91 30 0 c25 1 27 2 13 11 -11
6 -18 22 -18 39 0 46 38 40 72 -10 21 -31 34 -40 55 -40 l28 1 -25 13 c-14 8
-35 28 -48 45 -21 29 -22 33 -7 53 35 51 5 88 -71 88 -30 0 -44 -4 -36 -9z
m80 -17 c39 -27 17 -89 -28 -77 -15 4 -20 14 -20 42 0 54 10 62 48 35z"/>
<path d="M1969 751 c-21 -22 -29 -39 -29 -66 0 -67 33 -104 93 -105 49 0 73
13 92 50 24 46 19 87 -14 121 -41 41 -101 41 -142 0z m116 -6 c33 -32 35 -105
5 -135 -51 -51 -130 -2 -130 80 0 38 39 80 75 80 14 0 37 -11 50 -25z"/>
<path d="M2158 773 c8 -3 12 -32 12 -93 0 -61 -4 -90 -12 -93 -7 -3 15 -6 50
-6 57 -1 62 1 62 21 0 20 -1 21 -13 4 -8 -11 -23 -17 -38 -14 -23 3 -24 7 -27
83 -2 66 0 82 14 92 16 11 13 13 -22 12 -21 0 -33 -3 -26 -6z"/>
<path d="M2288 774 c8 -4 12 -33 12 -94 0 -61 -4 -90 -12 -93 -7 -3 17 -6 54
-6 58 -1 71 2 97 25 27 22 31 33 31 73 0 71 -29 95 -123 98 -40 2 -66 0 -59
-3z m94 -14 c46 -13 68 -43 68 -91 0 -49 -38 -81 -89 -77 l-36 3 -3 74 c-4
107 -3 108 60 91z"/>
<path d="M2519 751 c-62 -62 -20 -171 66 -171 47 0 71 13 90 50 24 46 19 87
-14 121 -41 41 -101 41 -142 0z m114 -1 c33 -26 42 -69 23 -114 -38 -90 -160
-30 -142 70 12 60 71 82 119 44z"/>
</g>
</svg>
