<?xml version="1.0" standalone="no"?>
<!DOCTYPE svg PUBLIC "-//W3C//DTD SVG 20010904//EN"
 "http://www.w3.org/TR/2001/REC-SVG-20010904/DTD/svg10.dtd">
<svg version="1.0" xmlns="http://www.w3.org/2000/svg"
 width="900.000000pt" height="450.000000pt" viewBox="0 0 900.000000 450.000000"
 preserveAspectRatio="xMidYMid meet">
<metadata>
Created by potrace 1.10, written by Peter Selinger 2001-2011
</metadata>
<g transform="translate(0.000000,450.000000) scale(0.100000,-0.100000)"
fill="#213ff7" stroke="none">
<path d="M3590 2751 c0 -30 2 -31 43 -31 80 0 77 20 77 -461 0 -396 -1 -427
-19 -459 -10 -19 -27 -36 -37 -36 -11 -1 -25 -2 -32 -3 -8 -1 -12 -9 -10 -18
3 -15 22 -17 171 -18 93 -1 170 2 173 6 2 4 1 15 -2 23 -5 12 -17 16 -45 14
-29 -1 -45 4 -61 19 -20 21 -21 31 -22 253 l-1 232 294 0 c161 -1 294 -2 296
-4 6 -6 -13 -463 -20 -480 -4 -10 -15 -18 -24 -19 -49 -2 -66 -11 -59 -31 4
-10 61 -13 261 -13 141 1 260 4 264 9 4 4 -1 14 -12 22 -19 14 -19 16 -2 77
10 34 21 76 25 92 8 29 9 30 87 36 54 4 84 3 92 -5 14 -13 72 -172 73 -198 0
-9 3 -19 8 -21 18 -11 108 -16 122 -7 13 8 9 14 -19 36 -30 24 -91 134 -91
164 0 6 -5 21 -12 33 -7 12 -22 49 -34 82 -12 33 -32 85 -44 115 -12 30 -28
78 -37 105 -19 64 -31 79 -49 64 -8 -6 -14 -17 -14 -23 0 -6 -13 -45 -29 -86
-16 -41 -33 -84 -37 -95 -4 -11 -19 -54 -34 -95 -15 -41 -40 -109 -54 -150
-15 -41 -38 -86 -51 -99 -23 -24 -38 -26 -115 -17 -14 2 -31 4 -37 5 -7 0 -20
16 -29 34 -15 28 -17 79 -18 453 -1 402 0 423 18 443 11 12 27 21 37 21 31 0
49 12 49 31 0 29 -22 33 -93 15 -53 -13 -73 -14 -118 -5 -30 7 -70 12 -89 13
-31 1 -35 -2 -35 -24 0 -23 4 -25 48 -28 39 -3 50 -7 56 -25 5 -12 10 -98 12
-192 l4 -170 -299 -3 -298 -2 4 179 c4 196 8 208 61 213 22 2 33 9 35 22 7 34
-12 39 -80 22 -50 -12 -74 -14 -118 -5 -130 25 -130 25 -130 -10z m1376 -588
c3 -16 16 -56 29 -90 12 -34 20 -64 17 -67 -3 -3 -32 -6 -64 -6 -68 0 -77 11
-55 62 8 18 18 48 21 67 11 61 41 81 52 34z"/>
<path d="M5841 2725 c-29 -19 -55 -35 -58 -35 -3 0 -18 -9 -34 -21 -34 -24
-37 -51 -8 -70 18 -12 19 -19 12 -47 l-8 -34 -238 -3 -238 -4 3 27 c3 25 6 27
46 24 36 -3 42 -1 42 16 0 11 -6 22 -14 25 -10 4 -13 17 -10 44 4 36 2 39 -47
71 -51 32 -79 40 -79 23 0 -5 -14 -24 -31 -42 -20 -22 -29 -39 -25 -52 3 -11
0 -29 -6 -40 -11 -22 6 -41 31 -32 14 5 61 -38 61 -56 0 -14 -33 -11 -75 7
-32 13 -48 13 -109 3 -95 -16 -118 -16 -123 -2 -2 6 5 21 16 32 30 30 43 59
30 67 -6 3 -9 17 -6 31 3 16 -1 27 -14 34 -11 5 -19 16 -19 23 0 8 -6 16 -12
19 -22 8 -52 -9 -90 -51 -43 -48 -42 -65 12 -118 21 -21 36 -42 34 -46 -3 -5
-32 -8 -64 -8 -52 0 -82 -12 -67 -26 10 -11 1016 -15 1034 -5 13 7 18 23 18
62 l0 53 90 3 c120 4 158 -2 146 -25 -9 -19 3 -62 17 -62 18 0 34 30 28 53
l-6 24 148 6 147 6 47 51 c26 27 54 50 62 50 8 0 33 -21 55 -46 37 -42 41 -52
41 -99 0 -33 5 -57 14 -64 20 -17 454 -20 487 -4 29 14 123 43 139 43 7 0 27
7 45 16 60 28 354 8 389 -27 6 -5 19 -9 29 -9 15 0 18 5 13 24 -4 18 -1 26 11
30 19 6 120 -5 246 -25 67 -11 80 -11 87 1 18 30 -42 55 -156 65 -71 7 -72 8
-71 34 2 23 -1 26 -25 23 -22 -3 -28 1 -28 17 0 11 -4 23 -10 26 -14 9 -50
-13 -50 -32 0 -11 -6 -14 -22 -9 -13 3 -40 6 -60 6 -34 0 -38 3 -38 25 0 28
-25 44 -42 27 -9 -9 -7 -17 6 -31 17 -19 17 -20 -3 -31 -12 -6 -21 -20 -21
-30 0 -16 -7 -20 -35 -20 -31 0 -35 3 -35 25 0 20 5 25 25 25 28 0 32 17 12
45 -18 23 -37 12 -37 -22 0 -21 -4 -24 -21 -20 -18 5 -20 2 -16 -19 2 -14 0
-24 -7 -24 -58 0 -189 -26 -230 -45 -65 -31 -263 -58 -361 -49 -38 3 -97 7
-130 7 l-60 2 0 54 c0 49 -3 55 -35 80 -19 14 -50 41 -69 59 l-34 32 -296 0
-296 0 -54 -35z m564 -26 c0 -7 -14 -23 -32 -35 -30 -20 -45 -21 -230 -23
-109 -1 -228 -4 -265 -7 -41 -4 -68 -3 -68 3 0 5 20 24 44 41 49 36 71 38 376
36 140 -1 175 -4 175 -15z m1355 -48 c0 -5 2 -16 6 -24 4 -10 -6 -16 -40 -20
-25 -4 -54 -12 -65 -19 -15 -9 -28 -9 -64 3 -68 22 -61 34 23 37 52 2 77 7 83
17 9 16 57 21 57 6z"/>
<path d="M7627 2744 c-4 -4 -7 -20 -7 -36 0 -25 4 -29 23 -26 17 2 22 10 22
33 0 29 -22 45 -38 29z"/>
<path d="M3057 2733 c-15 -14 -6 -41 16 -47 l22 -6 -22 -15 c-15 -10 -23 -26
-23 -45 0 -16 -4 -31 -9 -34 -5 -4 -19 -27 -32 -52 -18 -38 -19 -48 -8 -55 25
-16 44 -5 47 29 2 18 11 36 22 42 15 8 22 3 45 -35 26 -46 51 -57 62 -30 3 9
-1 23 -10 33 -8 9 -18 28 -21 42 -4 14 -11 34 -15 45 -30 72 -30 72 -13 89 16
16 16 18 -2 32 -21 15 -48 18 -59 7z"/>
<path d="M1072 2687 c-5 -7 -9 -56 -10 -110 0 -103 7 -120 44 -99 14 8 17 25
16 108 -1 88 -3 99 -21 105 -12 5 -23 3 -29 -4z"/>
<path d="M1563 2693 c-24 -5 -53 -38 -53 -62 0 -7 16 -31 36 -53 40 -45 40
-63 -2 -63 -19 0 -30 -6 -32 -18 -4 -22 19 -31 62 -23 61 12 69 81 15 132 -37
35 -38 57 -4 48 18 -4 27 -1 31 11 6 15 -11 37 -26 33 -3 0 -15 -3 -27 -5z"/>
<path d="M2849 2693 c-65 -5 -104 -46 -104 -109 0 -41 4 -49 48 -89 26 -25 47
-51 47 -60 0 -22 28 -18 35 5 4 11 20 27 36 36 44 23 31 40 -27 36 -45 -3 -51
-1 -72 27 -28 39 -28 72 1 99 28 26 45 27 75 6 27 -19 52 -12 52 14 0 21 -19
43 -34 40 -6 -1 -32 -3 -57 -5z"/>
<path d="M1226 2682 c-2 -4 -6 -49 -7 -100 -3 -101 5 -121 39 -103 19 10 20
13 6 39 -17 33 -18 82 -2 82 7 0 37 -28 68 -62 65 -71 86 -72 76 -2 -3 25 0
62 9 90 16 54 13 64 -20 64 -32 0 -35 -9 -24 -60 15 -64 -3 -74 -44 -25 -63
79 -88 97 -101 77z"/>
<path d="M1695 2680 c-11 -17 6 -32 31 -26 23 6 23 5 26 -86 3 -92 3 -93 28
-93 l25 0 -4 88 -3 87 36 0 c29 0 36 4 36 20 0 18 -7 20 -84 20 -47 0 -88 -4
-91 -10z"/>
<path d="M1955 2585 c0 -94 2 -106 19 -111 31 -10 37 9 34 112 -3 97 -3 99
-28 102 l-25 3 0 -106z"/>
<path d="M2085 2680 c-11 -17 5 -31 33 -28 l27 3 1 -83 c0 -88 9 -108 44 -97
20 6 21 11 15 70 -9 80 -2 103 33 107 16 2 27 9 27 18 0 12 -18 16 -87 18 -52
2 -89 -1 -93 -8z"/>
<path d="M2330 2608 c1 -107 18 -133 90 -133 72 0 89 26 90 133 l0 83 -27 -3
c-27 -3 -28 -4 -25 -60 2 -31 1 -71 -3 -88 -6 -26 -11 -31 -33 -28 -26 3 -27
5 -32 88 -5 84 -5 85 -32 88 l-28 3 0 -83z"/>
<path d="M2609 2688 c0 -2 -2 -49 -2 -106 -2 -90 0 -103 16 -108 34 -11 42 10
42 113 l-1 98 -27 3 c-15 2 -27 2 -28 0z"/>
<path d="M3261 2653 c-47 -57 -39 -115 22 -163 22 -18 37 -21 71 -18 70 8 113
67 101 139 -9 54 -43 79 -109 79 -51 0 -57 -3 -85 -37z m122 -14 c44 -50 25
-129 -31 -129 -42 0 -54 13 -59 64 -4 36 -2 51 12 66 23 26 56 25 78 -1z"/>
<path d="M6462 2627 c-6 -7 -12 -34 -14 -61 -3 -52 14 -75 46 -63 12 5 16 20
16 60 0 65 -22 95 -48 64z"/>
<path d="M5855 2567 c-25 -19 -13 -47 20 -47 23 0 26 4 23 27 -4 32 -17 38
-43 20z"/>
<path d="M6234 2566 c-11 -29 0 -51 26 -51 21 0 25 5 25 30 0 24 -5 31 -23 33
-13 2 -24 -3 -28 -12z"/>
<path d="M6010 2333 c-68 -22 -149 -95 -183 -163 -18 -37 -22 -62 -22 -145 0
-87 3 -106 25 -145 31 -57 93 -116 146 -141 62 -28 204 -27 259 2 185 98 234
363 94 508 -65 66 -126 91 -224 90 -44 0 -87 -3 -95 -6z m188 -62 c42 -22 78
-59 107 -111 16 -29 20 -54 20 -140 0 -94 -2 -109 -25 -145 -48 -78 -96 -105
-184 -105 -116 0 -197 66 -230 189 -38 138 11 265 124 318 41 19 146 16 188
-6z"/>
<path d="M7624 2316 c-63 -30 -123 -97 -147 -162 -27 -77 -23 -200 9 -267 31
-67 73 -111 136 -143 39 -20 62 -24 133 -24 53 0 99 6 121 15 62 26 120 82
153 149 28 57 31 73 31 155 0 72 -4 100 -20 131 -29 57 -74 105 -128 136 -40
23 -61 28 -142 31 -85 3 -101 1 -146 -21z m212 -39 c82 -35 124 -92 145 -195
11 -53 11 -71 -4 -133 -29 -122 -95 -179 -208 -179 -59 0 -109 16 -145 47 -28
25 -74 89 -74 105 0 7 -7 33 -16 58 -36 102 19 239 116 290 41 23 143 26 186
7z"/>
<path d="M1017 2324 c-10 -11 3 -24 23 -24 37 0 42 -33 41 -263 -1 -228 -3
-250 -29 -280 -8 -9 -12 -20 -9 -23 3 -4 43 -7 89 -7 70 0 84 2 86 16 3 12 -4
17 -22 17 -14 0 -27 4 -30 8 -3 5 -6 123 -7 262 0 182 2 255 11 260 15 9 58 1
94 -20 49 -27 71 -65 70 -122 0 -47 -4 -54 -40 -85 -21 -18 -49 -33 -61 -33
-27 0 -40 -19 -22 -31 43 -27 133 21 172 91 28 49 27 128 -2 169 -41 58 -84
71 -229 71 -71 0 -132 -3 -135 -6z"/>
<path d="M1604 2303 c-8 -36 -35 -111 -51 -143 -7 -14 -13 -33 -13 -42 0 -9
-4 -20 -10 -23 -5 -3 -10 -15 -10 -27 0 -11 -7 -34 -15 -51 -23 -50 -75 -190
-75 -203 0 -15 -42 -51 -65 -56 -11 -2 -20 -10 -20 -18 0 -12 15 -15 65 -16
36 -1 73 0 83 3 19 5 24 33 6 33 -13 0 -6 87 9 117 5 10 14 32 19 48 8 29 11
30 83 36 87 7 106 0 115 -42 4 -17 13 -42 21 -57 8 -15 14 -35 14 -44 0 -9 5
-20 10 -23 6 -3 10 -17 10 -30 0 -13 4 -27 10 -30 15 -9 117 -11 126 -2 4 4
-11 23 -34 42 -22 20 -46 51 -52 71 -7 20 -18 48 -26 62 -8 15 -14 35 -14 44
0 9 -4 19 -10 23 -5 3 -14 20 -19 38 -5 18 -19 57 -31 87 -42 110 -51 136 -63
180 -9 34 -17 46 -34 48 -17 3 -24 -3 -29 -25z m57 -198 c16 -47 29 -90 29
-95 0 -6 -29 -10 -65 -10 -62 0 -65 1 -65 24 0 14 4 27 9 30 4 3 11 20 14 38
7 42 36 112 44 105 3 -3 18 -45 34 -92z"/>
<path d="M1930 2320 c0 -6 11 -15 24 -20 44 -16 47 -36 44 -284 -3 -214 -5
-236 -22 -255 -11 -12 -17 -23 -15 -26 3 -2 77 -7 165 -11 157 -7 162 -6 215
18 60 27 117 82 150 143 19 34 22 57 22 145 1 90 -2 111 -21 146 -34 63 -85
103 -176 139 -46 18 -386 22 -386 5z m276 -44 c50 -7 104 -22 120 -32 77 -48
124 -133 124 -223 0 -114 -36 -181 -120 -223 -47 -24 -67 -28 -140 -28 -128 1
-121 -15 -123 262 0 128 2 239 7 246 9 15 20 15 132 -2z"/>
<path d="M2542 2318 c3 -7 14 -14 26 -16 11 -2 24 -13 28 -25 4 -12 7 -129 7
-261 l0 -239 -24 -18 c-13 -10 -20 -21 -16 -25 8 -8 166 -6 179 2 14 9 -2 24
-23 24 -31 0 -50 58 -47 143 l3 72 40 0 c52 1 78 -11 98 -43 8 -15 23 -36 31
-47 9 -11 32 -41 51 -67 67 -90 67 -90 314 -93 120 -2 222 0 228 3 17 12 33
49 33 81 0 38 -16 48 -31 19 -22 -41 -51 -57 -105 -58 -37 0 -56 5 -72 20 -20
19 -22 31 -22 124 0 119 1 121 82 110 33 -5 52 -13 59 -25 17 -32 45 -24 47
14 1 17 3 41 4 52 3 22 4 22 -95 4 -95 -16 -98 -13 -96 94 3 118 9 126 87 116
45 -6 62 -14 78 -35 l22 -27 12 22 c6 12 10 36 8 54 l-3 32 -167 3 c-145 2
-168 0 -168 -13 0 -8 8 -15 19 -15 33 0 39 -23 41 -140 4 -290 1 -378 -16
-395 -21 -20 -76 -11 -126 23 -38 25 -178 191 -178 212 0 6 12 23 26 38 36 39
54 87 54 146 0 45 -4 57 -31 84 -54 55 -78 62 -226 62 -103 0 -134 -3 -131
-12z m257 -52 c109 -69 65 -259 -59 -251 -70 5 -70 5 -70 134 0 78 4 121 12
129 20 20 76 14 117 -12z"/>
<path d="M5270 2315 c0 -8 8 -15 18 -15 40 0 42 -15 42 -271 0 -207 -2 -250
-15 -263 -8 -8 -15 -19 -15 -24 0 -15 163 -24 171 -10 10 16 2 28 -21 28 -35
0 -50 38 -50 127 0 45 5 85 10 88 15 9 100 -5 111 -19 5 -6 38 -50 74 -97 82
-111 113 -134 184 -134 54 0 82 19 44 31 -54 16 -93 47 -157 124 -39 47 -77
91 -83 98 -18 19 -16 25 13 53 63 59 84 163 43 221 -12 16 -39 40 -60 54 -36
22 -48 24 -174 24 -113 0 -135 -2 -135 -15z m247 -45 c68 -30 90 -107 56 -191
-17 -43 -61 -72 -99 -64 -10 2 -31 6 -46 10 l-28 5 0 118 c0 78 4 122 12 130
17 17 57 14 105 -8z"/>
<path d="M6435 2320 c-3 -6 6 -15 22 -21 15 -5 31 -16 35 -22 4 -7 8 -119 8
-249 0 -225 -1 -239 -20 -258 -11 -11 -20 -24 -20 -29 0 -14 293 -25 318 -12
24 13 40 77 24 93 -8 8 -20 2 -42 -21 -28 -27 -38 -31 -89 -31 -35 0 -65 6
-79 16 -22 15 -22 19 -22 249 0 199 2 236 16 249 8 9 22 16 30 16 8 0 14 7 14
15 0 12 -17 15 -94 15 -53 0 -98 -4 -101 -10z"/>
<path d="M6825 2320 c-3 -6 6 -15 22 -21 15 -5 31 -16 35 -22 4 -7 8 -118 8
-248 0 -226 -1 -238 -21 -263 -12 -15 -19 -29 -17 -31 2 -3 78 -7 169 -11 147
-6 169 -5 204 11 64 30 119 79 150 136 27 50 29 62 29 159 1 124 -15 165 -89
227 -73 61 -124 72 -317 73 -101 0 -169 -4 -173 -10z m281 -44 c117 -21 168
-57 219 -155 24 -47 18 -192 -10 -236 -32 -51 -67 -84 -96 -90 -16 -4 -31 -11
-34 -16 -4 -5 -47 -9 -97 -9 -135 0 -128 -16 -128 266 0 284 -10 267 146 240z"/>
</g>
</svg>
