<?xml version="1.0" standalone="no"?>
<!DOCTYPE svg PUBLIC "-//W3C//DTD SVG 20010904//EN"
 "http://www.w3.org/TR/2001/REC-SVG-20010904/DTD/svg10.dtd">
<svg version="1.0" xmlns="http://www.w3.org/2000/svg"
 width="187.000000pt" height="114.000000pt" viewBox="0 0 187.000000 114.000000"
 preserveAspectRatio="xMidYMid meet">
<metadata>
Created by potrace 1.13, written by Peter Selinger 2001-2015
</metadata>
<g transform="translate(0.000000,114.000000) scale(0.100000,-0.100000)"
fill="#000000" stroke="none">
<path d="M890 1051 c-54 -18 -55 -18 -28 -29 159 -65 213 -89 275 -123 40 -21
74 -39 77 -39 3 0 8 17 11 38 3 20 8 47 10 58 5 24 -28 42 -167 88 -89 30
-104 31 -178 7z"/>
<path d="M730 980 c-42 -5 -272 -116 -328 -158 l-23 -18 61 -42 61 -43 103 65
c57 36 160 93 227 128 135 68 134 64 4 70 -33 2 -81 1 -105 -2z"/>
<path d="M905 923 c-11 -3 -33 -14 -48 -25 -40 -28 -35 -74 12 -105 62 -42
202 -25 234 28 40 65 -87 129 -198 102z"/>
<path d="M1260 867 c-95 -52 -266 -163 -275 -177 -3 -4 17 -11 43 -15 26 -3
103 -17 171 -31 l124 -25 46 39 c25 21 79 64 119 95 l73 56 -68 39 c-67 39
-129 72 -135 72 -2 0 -46 -24 -98 -53z"/>
<path d="M657 738 l-56 -103 42 -39 c23 -22 106 -100 185 -174 l144 -135 109
109 c60 60 109 111 109 114 -1 17 -442 330 -466 330 -6 0 -36 -46 -67 -102z"/>
</g>
</svg>
